{
	"asset":{
		"generator":"Khronos glTF Blender I/O v4.0.44",
		"version":"2.0"
	},
	"scene":0,
	"scenes":[
		{
			"name":"Scene",
			"nodes":[
				0
			]
		}
	],
	"nodes":[
		{
			"mesh":0,
			"name":"AnimatedMorphBox"
		}
	],
	"meshes":[
		{
			"extras":{
				"targetNames":[
					"Key 2"
				]
			},
			"name":"Cube.005",
			"primitives":[
				{
					"attributes":{
						"POSITION":0,
						"NORMAL":1,
						"TEXCOORD_0":2
					},
					"indices":3,
					"targets":[
						{
							"POSITION":4,
							"NORMAL":5
						}
					]
				}
			],
			"weights":[
				0
			]
		}
	],
	"accessors":[
		{
			"bufferView":0,
			"componentType":5126,
			"count":1039,
			"max":[
				1,
				1,
				1
			],
			"min":[
				-1,
				-1,
				-1
			],
			"type":"VEC3"
		},
		{
			"bufferView":1,
			"componentType":5126,
			"count":1039,
			"type":"VEC3"
		},
		{
			"bufferView":2,
			"componentType":5126,
			"count":1039,
			"type":"VEC2"
		},
		{
			"bufferView":3,
			"componentType":5123,
			"count":1764,
			"type":"SCALAR"
		},
		{
			"componentType":5126,
			"count":1039,
			"max":[
				0.13912880420684814,
				0.11268925666809082,
				0.13450837135314941
			],
			"min":[
				-0.1268075704574585,
				-0.15324711799621582,
				-0.13142800331115723
			],
			"sparse":{
				"count":514,
				"indices":{
					"bufferView":4,
					"componentType":5123
				},
				"values":{
					"bufferView":5
				}
			},
			"type":"VEC3"
		},
		{
			"componentType":5126,
			"count":1039,
			"sparse":{
				"count":800,
				"indices":{
					"bufferView":6,
					"componentType":5123
				},
				"values":{
					"bufferView":7
				}
			},
			"type":"VEC3"
		}
	],
	"bufferViews":[
		{
			"buffer":0,
			"byteLength":12468,
			"byteOffset":0,
			"target":34962
		},
		{
			"buffer":0,
			"byteLength":12468,
			"byteOffset":12468,
			"target":34962
		},
		{
			"buffer":0,
			"byteLength":8312,
			"byteOffset":24936,
			"target":34962
		},
		{
			"buffer":0,
			"byteLength":3528,
			"byteOffset":33248,
			"target":34963
		},
		{
			"buffer":0,
			"byteLength":1028,
			"byteOffset":36776
		},
		{
			"buffer":0,
			"byteLength":6168,
			"byteOffset":37804
		},
		{
			"buffer":0,
			"byteLength":1600,
			"byteOffset":43972
		},
		{
			"buffer":0,
			"byteLength":9600,
			"byteOffset":45572
		}
	],
	"buffers":[
		{
			"byteLength":55172,
			"uri":"AnimatedMorphBox.bin"
		}
	]
}
