<?xml version="1.0" encoding="UTF-8"?><svg id="Layer_1" xmlns="http://www.w3.org/2000/svg" viewBox="0 0 337.54 271.49"><defs><style>.cls-1{fill:#ef3f23;}</style></defs><path class="cls-1" d="M337.54,0H0V271.49H168.77v-77.29c-32.02-.09-58.46-26.38-58.46-58.45,0-5.73,.83-11.28,2.36-16.51,.12-.42,.63-.6,.99-.35l23.01,15.93c.18,.13,.19,.39,0,.52l-20.74,15.3c-.23,.17-.11,.54,.18,.54h50.61c.18,0,.32-.14,.32-.32v-30.62c0-.18-.14-.32-.32-.32h-9.84c-.18,0-.32,.14-.32,.32v21.44c0,.18-.14,.32-.32,.32h-12.18c-.31,0-.44-.4-.19-.58l8.57-6.32c.18-.13,.17-.4,0-.52l-35.54-24.61c-.27-.19-.36-.54-.21-.83,9.65-18.85,29.22-31.77,51.82-31.86,32.5-.13,58.61,25.79,58.7,58.29,.02,5.7-.78,11.2-2.29,16.41-.12,.42-.63,.6-.99,.35l-23.17-16.05c-.18-.13-.19-.39,0-.52l20.74-15.3c.23-.17,.11-.54-.18-.54h-50.61c-.18,0-.32,.14-.32,.32v30.6c0,.18,.14,.32,.32,.32h9.84c.18,0,.32-.14,.32-.32v-21.43c0-.18,.14-.32,.32-.32h12.18c.31,0,.44,.4,.19,.58l-8.57,6.32c-.18,.13-.17,.4,0,.52l35.75,24.75c.27,.18,.36,.54,.21,.83-9.6,18.98-29.25,32.01-51.96,32.1-.02,0-.21,0-.23,0v77.29h168.77V0Z"/></svg>