<?xml version="1.0" encoding="UTF-8"?><svg id="Layer_1" xmlns="http://www.w3.org/2000/svg" viewBox="0 0 204.6 16.39"><defs><style>.cls-1{fill:#fff;}</style></defs><rect class="cls-1" x="0" y="8.19" width="4.09" height="4.1"/><polygon class="cls-1" points="12.27 0 8.18 0 4.09 0 4.09 4.1 8.18 4.1 12.27 4.1 16.37 4.1 16.37 0 12.27 0"/><polygon class="cls-1" points="28.64 4.1 28.64 0 24.55 0 20.46 0 20.46 4.1 24.55 4.1 28.64 4.1"/><polygon class="cls-1" points="28.64 8.19 24.55 8.19 20.46 8.19 20.46 4.1 16.37 4.1 16.37 8.19 12.27 8.19 8.18 8.19 8.18 12.3 12.27 12.3 16.37 12.3 20.46 12.3 20.46 16.39 24.55 16.39 28.64 16.39 32.73 16.39 36.83 16.39 40.92 16.39 40.92 12.3 36.83 12.3 36.83 8.19 32.73 8.19 28.64 8.19"/><polygon class="cls-1" points="40.92 0 36.83 0 36.83 4.1 36.83 8.19 40.92 8.19 40.92 4.1 45.01 4.1 45.01 0 40.92 0"/><polygon class="cls-1" points="49.1 4.1 45.01 4.1 45.01 8.19 45.01 12.3 49.1 12.3 49.1 16.39 53.2 16.39 53.2 12.3 53.2 8.19 53.2 4.1 53.2 0 49.1 0 49.1 4.1"/><rect class="cls-1" x="57.29" y="0" width="4.09" height="4.1"/><rect class="cls-1" x="65.47" y="4.1" width="4.09" height="4.09"/><rect class="cls-1" x="65.47" y="12.3" width="4.09" height="4.09"/><rect class="cls-1" x="69.57" y="0" width="4.09" height="4.1"/><rect class="cls-1" x="77.75" y="0" width="4.09" height="4.1"/><rect class="cls-1" x="81.84" y="4.1" width="4.09" height="4.09"/><polygon class="cls-1" points="94.12 8.19 90.03 8.19 90.03 12.3 90.03 16.39 94.12 16.39 98.21 16.39 98.21 12.3 94.12 12.3 94.12 8.19"/><rect class="cls-1" x="98.21" y="0" width="4.09" height="4.1"/><rect class="cls-1" x="102.3" y="4.1" width="4.09" height="4.09"/><polygon class="cls-1" points="106.39 12.3 106.39 16.39 110.48 16.39 114.58 16.39 114.58 12.3 110.48 12.3 106.39 12.3"/><rect class="cls-1" x="110.48" y="0" width="4.09" height="4.1"/><rect class="cls-1" x="114.58" y="8.19" width="4.09" height="4.1"/><polygon class="cls-1" points="159.59 8.19 159.59 12.3 155.5 12.3 155.5 8.19 155.5 4.1 151.41 4.1 151.41 0 147.32 0 143.22 0 139.13 0 135.04 0 130.95 0 126.85 0 122.76 0 122.76 4.1 126.85 4.1 126.85 8.19 126.85 12.3 126.85 16.39 130.95 16.39 135.04 16.39 139.13 16.39 139.13 12.3 143.22 12.3 147.32 12.3 147.32 16.39 151.41 16.39 155.5 16.39 159.59 16.39 163.68 16.39 163.68 12.3 163.68 8.19 163.68 4.1 159.59 4.1 159.59 8.19"/><polygon class="cls-1" points="175.96 4.1 175.96 0 171.87 0 167.78 0 163.68 0 163.68 4.1 167.78 4.1 171.87 4.1 175.96 4.1"/><polygon class="cls-1" points="175.96 12.3 171.87 12.3 171.87 16.39 175.96 16.39 180.05 16.39 180.05 12.3 180.05 8.19 175.96 8.19 175.96 12.3"/><rect class="cls-1" x="184.14" y="0" width="4.09" height="4.1"/><polygon class="cls-1" points="200.51 8.19 196.42 8.19 196.42 4.1 196.42 0 192.33 0 192.33 4.1 188.24 4.1 188.24 8.19 188.24 12.3 192.33 12.3 196.42 12.3 196.42 16.39 200.51 16.39 200.51 12.3 204.6 12.3 204.6 8.19 200.51 8.19"/></svg>