<?xml version="1.0" encoding="UTF-8"?><svg id="Layer_1" xmlns="http://www.w3.org/2000/svg" viewBox="0 0 204.6 16.39"><defs><style>.cls-1{fill:#fff;}</style></defs><rect class="cls-1" x="200.51" y="4.09" width="4.09" height="4.1"/><polygon class="cls-1" points="192.33 12.29 188.24 12.29 188.24 16.39 192.33 16.39 196.42 16.39 200.51 16.39 200.51 12.29 196.42 12.29 192.33 12.29"/><polygon class="cls-1" points="192.33 8.19 196.42 8.19 196.42 4.09 192.33 4.09 188.24 4.09 184.14 4.09 184.14 0 180.05 0 175.96 0 171.87 0 167.78 0 163.69 0 163.69 4.09 167.78 4.09 167.78 8.19 171.87 8.19 175.96 8.19 180.05 8.19 184.14 8.19 184.14 12.29 188.24 12.29 188.24 8.19 192.33 8.19"/><polygon class="cls-1" points="175.96 12.29 175.96 16.39 180.05 16.39 184.14 16.39 184.14 12.29 180.05 12.29 175.96 12.29"/><polygon class="cls-1" points="163.69 12.29 159.59 12.29 159.59 16.39 163.69 16.39 167.78 16.39 167.78 12.29 167.78 8.19 163.69 8.19 163.69 12.29"/><polygon class="cls-1" points="159.59 4.09 155.5 4.09 155.5 0 151.41 0 151.41 4.09 151.41 8.19 151.41 12.29 151.41 16.39 155.5 16.39 155.5 12.29 159.59 12.29 159.59 8.19 159.59 4.09"/><rect class="cls-1" x="143.22" y="12.29" width="4.09" height="4.1"/><rect class="cls-1" x="135.04" y="8.19" width="4.09" height="4.09"/><rect class="cls-1" x="135.04" y="0" width="4.09" height="4.09"/><rect class="cls-1" x="130.95" y="12.29" width="4.09" height="4.1"/><rect class="cls-1" x="122.76" y="12.29" width="4.09" height="4.1"/><rect class="cls-1" x="118.67" y="8.19" width="4.09" height="4.09"/><polygon class="cls-1" points="106.39 0 106.39 4.09 110.49 4.09 110.49 8.19 114.58 8.19 114.58 4.09 114.58 0 110.49 0 106.39 0"/><rect class="cls-1" x="102.3" y="12.29" width="4.09" height="4.1"/><rect class="cls-1" x="98.21" y="8.19" width="4.09" height="4.09"/><polygon class="cls-1" points="98.21 0 94.12 0 90.03 0 90.03 4.09 94.12 4.09 98.21 4.09 98.21 0"/><rect class="cls-1" x="90.03" y="12.29" width="4.09" height="4.1"/><rect class="cls-1" x="85.93" y="4.09" width="4.09" height="4.1"/><polygon class="cls-1" points="77.75 8.19 77.75 4.09 77.75 0 73.66 0 69.57 0 65.47 0 65.47 4.09 61.38 4.09 57.29 4.09 57.29 0 53.2 0 49.1 0 45.01 0 40.92 0 40.92 4.09 40.92 8.19 40.92 12.29 45.01 12.29 45.01 8.19 45.01 4.09 49.1 4.09 49.1 8.19 49.1 12.29 53.2 12.29 53.2 16.39 57.29 16.39 61.38 16.39 65.47 16.39 69.57 16.39 73.66 16.39 77.75 16.39 81.84 16.39 81.84 12.29 77.75 12.29 77.75 8.19"/><polygon class="cls-1" points="32.74 12.29 28.64 12.29 28.64 16.39 32.74 16.39 36.83 16.39 40.92 16.39 40.92 12.29 36.83 12.29 32.74 12.29"/><polygon class="cls-1" points="28.64 4.09 32.74 4.09 32.74 0 28.64 0 24.55 0 24.55 4.09 24.55 8.19 28.64 8.19 28.64 4.09"/><rect class="cls-1" x="16.37" y="12.29" width="4.09" height="4.1"/><polygon class="cls-1" points="16.37 4.09 12.27 4.09 8.18 4.09 8.18 0 4.09 0 4.09 4.09 0 4.09 0 8.19 4.09 8.19 8.18 8.19 8.18 12.29 8.18 16.39 12.27 16.39 12.27 12.29 16.37 12.29 16.37 8.19 16.37 4.09"/></svg>