<?xml version="1.0" encoding="UTF-8"?><svg id="Layer_1" xmlns="http://www.w3.org/2000/svg" viewBox="0 0 661.77 661.87"><defs><style>.cls-1{fill:#f2f2f2;}</style></defs><path class="cls-1" d="m595.54,250.18c-1.62-1.09-3.32-.59-4.9-.59-81.2-.06-162.39-.08-243.59-.1q-7.28,0-7.29,7.47c0,46.42,0,92.84,0,139.27,0,6.61.02,6.63,6.57,6.63,14.64,0,29.29-.19,43.92.05,4.6.08,5.98-1.35,5.95-5.94-.17-33.28-.09-66.55-.09-99.83,0-7.18.02-7.2,7.13-7.2,18.64,0,37.27-.02,55.91.02,1.58,0,3.3-.52,4.84.73-.6,2.18-2.64,2.87-4.16,4-14.05,10.38-28.15,20.7-42.22,31.05-4.53,3.33-4.54,3.42.09,6.84,54.05,39.95,108.12,79.87,162.18,119.82,2.01,1.48,3.96,3.04,5.93,4.56,7.72,5.96,7.85,6.03,3.19,14.33-43.94,78.27-109.42,128.91-197.31,146.8-98.53,20.05-186.56-4.4-261.02-72.58-51.86-47.49-81.7-107.08-91.12-176.81-5.49-40.63-2.08-80.6,9.13-119.97.27-.96.65-1.9.84-2.87.76-3.81,2.32-4.61,5.73-2.19,8.27,5.88,16.74,11.48,25.11,17.22,28.96,19.83,57.92,39.68,86.88,59.52q5.41,3.71.01,7.69c-32.05,23.54-64.1,47.07-96.14,70.61-1.32.97-2.57,2.02-3.93,3.08,1.39,1.57,2.98.92,4.34.92,80.7.03,161.39.03,242.09.02,7.49,0,7.5-.05,7.5-7.3,0-46.09,0-92.18,0-138.27q0-6.58-6.62-6.6c-13.98-.01-27.95-.01-41.93,0-6.67,0-6.69.02-6.69,6.54-.02,32.94-.03,65.89-.05,98.83,0,7.52-.02,7.54-7.33,7.54-19.47,0-38.93-.01-58.4-.07-1.43,0-3.55.7-4.12-.76-.78-1.99,1.63-2.57,2.84-3.47,14.7-10.91,29.44-21.74,44.18-32.6,4.5-3.31,4.48-3.28-.21-6.69-52.32-38.09-104.63-76.19-156.94-114.3-3.76-2.74-7.31-5.81-11.2-8.34-3.19-2.08-3.52-4.02-1.71-7.36,10.4-19.08,22.65-36.84,37.07-53.08,38.55-43.43,85.44-74.41,141.69-88.85,100.86-25.89,192.46-6.15,272.08,61.72,51.82,44.17,83.44,100.86,95.96,167.81,8.48,45.34,6.16,90.38-6.51,134.8-1.89,6.62-2.05,6.63-7.61,2.49-36.8-27.45-73.61-54.9-110.41-82.35-5.33-3.97-5.33-4,.18-8.05,31.78-23.34,63.57-46.67,95.32-70.04,1.67-1.23,3.72-2.1,4.8-4.16Z"/></svg>