<?xml version="1.0" encoding="UTF-8"?><svg id="Layer_1" xmlns="http://www.w3.org/2000/svg" viewBox="0 0 95.18 11.72"><defs><style>.cls-1{fill:#fff;}</style></defs><path class="cls-1" d="M15.71,7.14c0,1.22-.51,1.76-1.64,1.76-1.23,0-1.8-.56-1.8-1.76V.23h-2.93V3.96C8.79,1.54,6.98,.23,4.1,.23H0V8.68H2.93V2.97h1.3c1.4,0,2.34,.48,2.34,2.8,0,1.96-.77,2.91-2.36,2.91h-1.27v2.73h1.17c2.12,0,4.59-.75,5.24-4.03h0c.09,2.74,1.76,4.25,4.73,4.25s4.58-1.68,4.58-4.5V.23h-2.93V7.14Z"/><path class="cls-1" d="M32.22,.23h-4.1V9.97c-.22-.34-.25-.95-.29-1.54-.01-.19-.02-.37-.04-.56-.04-.44-.13-1.27-.66-1.9,.57-.59,.89-1.42,.89-2.41,0-1.99-1.5-3.32-3.72-3.32h-5.31V11.41h2.93V7.35h2.26c.48,0,.62,.04,.76,1v.05c.07,.31,.08,.65,.09,.98,.02,.67,.04,1.3,.47,1.76l.25,.27h6.46c2.46,0,5.4-1.01,5.4-5.81,0-3.46-1.92-5.36-5.4-5.36Zm-8.49,4.38h-1.81v-1.65h2.31c.63,0,.86,.21,.86,.79,0,.42,0,.86-1.36,.86Zm8.59,4.06h-1.27V2.97h1.3c1.4,0,2.34,.48,2.34,2.8,0,1.96-.77,2.91-2.36,2.91Z"/><path class="cls-1" d="M91.98,.22V5.49L88.48,.22h-2.89V3.01c-.67-1.93-2.39-3.01-4.85-3.01s-4.46,1.46-5.19,3.79V.22h-3.26V3.69c-.18-2.28-1.88-3.69-4.49-3.69-1.63,0-3,.6-3.77,1.63V.22h-8.57V3.42c-.7-2.08-2.5-3.2-5.24-3.2h-6.23s-2.33,3.8-2.33,3.8L39.29,.23h-3.5l4.38,6.7v4.47h2.93V6.93l2.87-4.44v6.33h2.93v2.67h1.33c2.04,0,4.38-.65,5.24-3.4v3.4h8.6v-1.28c.87,.97,2.24,1.5,3.92,1.5s3.51-.66,4.3-2.11v1.89h3.26v-3.49c.69,2.02,2.47,3.71,5.19,3.71,.92,0,1.78-.21,2.51-.62l.11,.4h5.42V6.3l3.46,5.2h2.93V.22h-3.2ZM50.23,11.16h-1v-2.34h1.11c1.68,0,2.53-1.01,2.53-3.02,0-2.56-1.2-2.91-2.5-2.91h-1.46v5.59h-2.6V1.98l.92-1.43h3.01c3.38,0,5.24,1.81,5.24,5.08,0,4.57-2.85,5.53-5.24,5.53Zm-1-2.67V3.23h1.13c1.34,0,2.17,.43,2.17,2.58,0,1.83-.7,2.68-2.2,2.68h-1.11Zm23.06,.16c-.4,1.89-2.45,2.74-4.31,2.74s-3.17-.62-3.95-1.74l-.3-.44v1.95h-7.94V.55h7.9V2.9h-5.3v1.66h4.94v2.24h2.59v.65c0,1,.79,1.59,2.1,1.59,1.16,0,1.75-.35,1.75-1.05,0-.6-.7-.81-2.19-1.12l-.32-.07c-.32-.07-.71-.15-1.12-.28l-.15-.05c-1.55-.52-2.3-1.43-2.3-2.77,0-.2,.02-.4,.06-.61l.04-.2h-.07l.3-.6c.62-1.23,2.03-1.96,3.79-1.96,2.49,0,4.08,1.37,4.17,3.57l.03,.67h-2.49l-.06-.58c-.07-.62-.32-1.32-1.7-1.32-.99,0-1.46,.31-1.46,.94,0,.46,.76,.65,2,.91,.17,.04,.35,.07,.54,.12,.14,.03,.3,.07,.47,.11l.23,.06h0s.29,.09,.29,.09c1.43,.46,2.24,1.23,2.48,2.34l.15,.69-.15,.71Zm-8.62-3.51c.28,.55,.76,.99,1.43,1.33h-1.43v-1.33Zm-.28-.91h-4.66v-1h4.66c-.02,.16-.03,.32-.03,.48,0,.18,.01,.35,.04,.52Zm2.87,3.22v-.54c.34,.1,.66,.17,.93,.22l.33,.07c1.3,.27,1.93,.46,1.93,.8,0,.2,0,.71-1.41,.71-.66,0-1.77-.16-1.77-1.26Zm6.04-2.54v1.39c-.33-.57-.85-1.04-1.56-1.39h1.56Zm-3.14-.54c-.09-.02-.18-.04-.26-.06-.18-.04-.36-.08-.53-.11-.52-.11-1.74-.36-1.74-.58,0-.18,0-.61,1.13-.61s1.31,.53,1.36,1.03l.04,.34Zm6.07,6.79h-2.6V.55h2.6V11.16Zm10.37,0h-1.97l-.17-.58-.19,.12c-.72,.45-1.59,.68-2.53,.68-3.37,0-5.19-2.75-5.19-5.34,0-3.41,2.09-5.71,5.19-5.71,2.64,0,4.37,1.33,4.75,3.63l.03,.23h-2.61c-.17-.99-.94-1.52-2.17-1.52-2.41,0-2.6,2.53-2.6,3.3,0,1.53,.8,3.07,2.6,3.07,.75,0,1.37-.23,1.8-.67,.23-.24,.4-.52,.49-.86l.06-.21h-3.01v-2.34h5.5s0,6.2,0,6.2Zm0-6.54h-5.83v3.01h2.88c-.08,.19-.2,.36-.34,.51-.36,.37-.9,.57-1.56,.57-1.56,0-2.26-1.37-2.26-2.73,0-.7,.16-2.97,2.26-2.97,1.07,0,1.69,.42,1.84,1.23l.04,.3h2.97v.09Zm9.25,6.54h-2.41l-3.97-5.97v5.97h-2.53V4.62s0-4.07,0-4.07h2.37l4.01,6.04V.55h2.53V11.16Z"/><path class="cls-1" d="M63.39,7.45v-.55h-5v1.92h5.22l-.06-.21c-.11-.37-.16-.76-.16-1.16Zm-4.66,1.04v-1.26h4.33v.22c0,.36,.04,.7,.12,1.04h-4.45Z"/></svg>