<?xml version="1.0" encoding="UTF-8"?><svg id="Layer_1" xmlns="http://www.w3.org/2000/svg" viewBox="0 0 12.35 12.36"><defs><style>.cls-1{fill:#fff;}</style></defs><path class="cls-1" d="M12.11,7.89c-.04,.14-.04,.14-.16,.05-.77-.58-1.55-1.15-2.32-1.73-.11-.08-.11-.08,0-.17,.67-.49,1.34-.98,2-1.47,.04-.03,.08-.04,.1-.09h0s-.07-.01-.1-.01c-1.71,0-3.41,0-5.12,0-.1,0-.15,.05-.15,.16v2.93c0,.14,0,.14,.14,.14,.31,0,.62,0,.92,0,.1,0,.13-.03,.13-.12,0-.7,0-1.4,0-2.1,0-.15,0-.15,.15-.15,.39,0,.78,0,1.18,0,.03,0,.07-.01,.1,.02-.01,.05-.06,.06-.09,.08-.3,.22-.59,.44-.89,.65-.1,.07-.1,.07,0,.14,1.14,.84,2.27,1.68,3.41,2.52,.04,.03,.08,.06,.12,.1,.16,.13,.17,.13,.07,.3-.92,1.65-2.3,2.71-4.15,3.09-2.07,.42-3.92-.09-5.49-1.53C.88,9.69,.25,8.44,.05,6.97c-.12-.85-.04-1.69,.19-2.52,0-.02,.01-.04,.02-.06,.02-.08,.05-.1,.12-.05,.17,.12,.35,.24,.53,.36,.61,.42,1.22,.83,1.83,1.25,.08,.05,.08,.11,0,.16-.67,.49-1.35,.99-2.02,1.48-.03,.02-.05,.04-.08,.06,.03,.03,.06,.02,.09,.02,1.7,0,3.39,0,5.09,0,.16,0,.16,0,.16-.15v-2.91c0-.09-.05-.14-.14-.14-.29,0-.59,0-.88,0-.14,0-.14,0-.14,.14,0,.69,0,1.39,0,2.08,0,.16,0,.16-.15,.16-.41,0-.82,0-1.23,0-.03,0-.07,.01-.09-.02-.02-.04,.03-.05,.06-.07,.31-.23,.62-.46,.93-.69,.09-.07,.09-.07,0-.14-1.1-.8-2.2-1.6-3.3-2.4-.08-.06-.15-.12-.24-.18-.07-.04-.07-.08-.04-.15,.22-.4,.48-.77,.78-1.12,.81-.91,1.8-1.56,2.98-1.87,2.12-.54,4.05-.13,5.72,1.3,1.09,.93,1.75,2.12,2.02,3.53,.18,.95,.13,1.9-.14,2.83Z"/></svg>